<svg xmlns="http://www.w3.org/2000/svg" xmlns:xlink="http://www.w3.org/1999/xlink" version="1.1" style="enable-background:new 0 0 14.872 14.872;" xml:space="preserve" width="14.872" height="14.872"><rect id="backgroundrect" width="100%" height="100%" x="0" y="0" fill="none" stroke="none"/>
















<g class="currentLayer" style=""><title>Layer 1</title><g id="svg_1" class="selected" fill="#cdb599" fill-opacity="1">
	<path d="M14.872,3.98v4.191h-0.844v4.51v0.942H7.464H6.468V8.394H3.66v1.662h0.676v1.08h1.036v2.515H4.406H2.008H1.031v-2.516   h1.025v1.558h2.29v-1.681H2.048v-0.957h0.679V8.394H1.015v-0.94H0V3.941h1.022v3.494h4.377V3.941h1.042h0.901V2.158V1.22h4.557   h0.038h1.021v2.76h0.877H14.872z M2.057,3.915H1.015V2.957h1.042C2.057,2.957,2.057,3.915,2.057,3.915z M4.336,3.023H2.048V2.066   h2.288C4.336,2.066,4.336,3.023,4.336,3.023z M4.347,3.915V2.957h1.042v0.959H4.347z M10.751,12.693h2.252V7.455h0.846V4.901   h-0.891v1.67h-1.021h-0.038H8.334H7.343v-1.67H6.422v2.535h1.071v0.959v0.019v4.28h2.355v-2.639h0.902v2.638H10.751z M11.935,2.178   h-3.57v3.437h3.569V2.178H11.935z" id="svg_2" fill="#cdb599" fill-opacity="1"/>
	<g id="svg_3" fill="#cdb599" fill-opacity="1">
	</g>
	<g id="svg_4" fill="#cdb599" fill-opacity="1">
	</g>
	<g id="svg_5" fill="#cdb599" fill-opacity="1">
	</g>
	<g id="svg_6" fill="#cdb599" fill-opacity="1">
	</g>
	<g id="svg_7" fill="#cdb599" fill-opacity="1">
	</g>
	<g id="svg_8" fill="#cdb599" fill-opacity="1">
	</g>
	<g id="svg_9" fill="#cdb599" fill-opacity="1">
	</g>
	<g id="svg_10" fill="#cdb599" fill-opacity="1">
	</g>
	<g id="svg_11" fill="#cdb599" fill-opacity="1">
	</g>
	<g id="svg_12" fill="#cdb599" fill-opacity="1">
	</g>
	<g id="svg_13" fill="#cdb599" fill-opacity="1">
	</g>
	<g id="svg_14" fill="#cdb599" fill-opacity="1">
	</g>
	<g id="svg_15" fill="#cdb599" fill-opacity="1">
	</g>
	<g id="svg_16" fill="#cdb599" fill-opacity="1">
	</g>
	<g id="svg_17" fill="#cdb599" fill-opacity="1">
	</g>
</g><g id="svg_18">
</g><g id="svg_19">
</g><g id="svg_20">
</g><g id="svg_21">
</g><g id="svg_22">
</g><g id="svg_23">
</g><g id="svg_24">
</g><g id="svg_25">
</g><g id="svg_26">
</g><g id="svg_27">
</g><g id="svg_28">
</g><g id="svg_29">
</g><g id="svg_30">
</g><g id="svg_31">
</g><g id="svg_32">
</g></g></svg>